<svg width="48" height="48" viewBox="0 0 48 48" fill="none" xmlns="http://www.w3.org/2000/svg">
<path fill-rule="evenodd" clip-rule="evenodd" d="M24 44C13 44 4 35.0002 4 23.9004C4.1 12.9006 13 3.90083 24.1 4.00083C35.1 4.10082 44 13.0006 44 24.2004C43.9 35.1002 35 44 24 44Z" fill="#FF060A"/>
<path d="M36.9445 20.3861C35.6697 19.2089 33.9061 17.4113 32.4697 16.1364L32.3847 16.0769C32.2433 15.9634 32.0838 15.8743 31.913 15.8134C28.4495 15.1675 12.3306 12.1545 12.0161 12.1927C11.928 12.2051 11.8438 12.237 11.7697 12.2862L11.6889 12.35C11.5895 12.451 11.514 12.5729 11.4679 12.707L11.4467 12.7622V13.0639V13.1107C13.2613 18.1635 20.4262 34.7159 21.8371 38.6C21.9221 38.8635 22.0835 39.365 22.3853 39.3905H22.4533C22.6147 39.3905 23.3032 38.481 23.3032 38.481C23.3032 38.481 35.6102 23.5563 36.8553 21.9669C37.0165 21.7711 37.1588 21.5606 37.2803 21.338C37.3113 21.1638 37.2967 20.9846 37.2378 20.8178C37.179 20.651 37.0779 20.5022 36.9445 20.3861ZM26.4607 22.1242L31.7132 17.7683L34.7942 20.607L26.4607 22.1242ZM24.4208 21.8394L15.3776 14.4281L30.0091 17.1266L24.4208 21.8394ZM25.2368 23.7815L34.4925 22.2899L23.9109 35.0388L25.2368 23.7815ZM14.1495 15.1675L23.6644 23.2418L22.2875 35.0473L14.1495 15.1675Z" fill="white"/>
</svg>
